<svg id="visual" viewBox="0 0 900 600" width="900" height="600" xmlns="http://www.w3.org/2000/svg" xmlns:xlink="http://www.w3.org/1999/xlink" version="1.1"><rect x="0" y="0" width="900" height="600" fill="#410f4b"></rect><defs><linearGradient id="grad1_0" x1="33.3%" y1="0%" x2="100%" y2="100%"><stop offset="20%" stop-color="#410f4b" stop-opacity="1"></stop><stop offset="80%" stop-color="#410f4b" stop-opacity="1"></stop></linearGradient></defs><defs><linearGradient id="grad2_0" x1="0%" y1="0%" x2="66.7%" y2="100%"><stop offset="20%" stop-color="#410f4b" stop-opacity="1"></stop><stop offset="80%" stop-color="#410f4b" stop-opacity="1"></stop></linearGradient></defs><g transform="translate(900, 0)"><path d="M0 486.7C-71.7 488.4 -143.4 490.1 -186.3 449.7C-229.1 409.3 -243.1 326.7 -275.8 275.8C-308.5 224.9 -359.9 205.6 -398.2 164.9C-436.5 124.3 -461.6 62.1 -486.7 0L0 0Z" fill="#0a0a0a"></path></g><g transform="translate(0, 600)"><path d="M0 -486.7C54.8 -454.8 109.5 -422.9 165.7 -400C221.9 -377.2 279.5 -363.4 330.2 -330.2C380.9 -297.1 424.8 -244.5 449.7 -186.3C474.6 -128 480.7 -64 486.7 0L0 0Z" fill="#0a0a0a"></path></g></svg>