<svg id="visual" viewBox="0 0 900 600" width="900" height="600" xmlns="http://www.w3.org/2000/svg" xmlns:xlink="http://www.w3.org/1999/xlink" version="1.1"><g stroke-width="1" stroke-linejoin="bevel"><path d="M408 314L271 291L376 368Z" fill="#c2c2c2" stroke="#c2c2c2"></path><path d="M271 291L286 374L376 368Z" fill="#e4e4e4" stroke="#e4e4e4"></path><path d="M408 314L367 218L271 291Z" fill="#dddddd" stroke="#dddddd"></path><path d="M367 218L268 223L271 291Z" fill="#bbbbbb" stroke="#bbbbbb"></path><path d="M268 223L216 231L271 291Z" fill="#d6d6d6" stroke="#d6d6d6"></path><path d="M271 291L198 362L286 374Z" fill="#cfcfcf" stroke="#cfcfcf"></path><path d="M188 317L198 362L271 291Z" fill="#c8c8c8" stroke="#c8c8c8"></path><path d="M216 231L188 317L271 291Z" fill="#c2c2c2" stroke="#c2c2c2"></path><path d="M506 411L498 302L408 314Z" fill="#dddddd" stroke="#dddddd"></path><path d="M408 314L498 302L367 218Z" fill="#eaeaea" stroke="#eaeaea"></path><path d="M397 514L506 411L376 368Z" fill="#dddddd" stroke="#dddddd"></path><path d="M376 368L506 411L408 314Z" fill="#bbbbbb" stroke="#bbbbbb"></path><path d="M295 509L376 368L286 374Z" fill="#bbbbbb" stroke="#bbbbbb"></path><path d="M498 302L477 168L367 218Z" fill="#f1f1f1" stroke="#f1f1f1"></path><path d="M367 218L286 73L268 223Z" fill="#c8c8c8" stroke="#c8c8c8"></path><path d="M268 223L227 68L216 231Z" fill="#c2c2c2" stroke="#c2c2c2"></path><path d="M220 492L295 509L286 374Z" fill="#eaeaea" stroke="#eaeaea"></path><path d="M188 317L137 363L198 362Z" fill="#e4e4e4" stroke="#e4e4e4"></path><path d="M198 362L220 492L286 374Z" fill="#ffffff" stroke="#ffffff"></path><path d="M122 297L137 363L188 317Z" fill="#c2c2c2" stroke="#c2c2c2"></path><path d="M295 509L397 514L376 368Z" fill="#bbbbbb" stroke="#bbbbbb"></path><path d="M216 231L122 297L188 317Z" fill="#f8f8f8" stroke="#f8f8f8"></path><path d="M134 491L220 492L198 362Z" fill="#e4e4e4" stroke="#e4e4e4"></path><path d="M477 168L403 84L367 218Z" fill="#e4e4e4" stroke="#e4e4e4"></path><path d="M216 231L83 238L122 297Z" fill="#c8c8c8" stroke="#c8c8c8"></path><path d="M403 84L286 73L367 218Z" fill="#ffffff" stroke="#ffffff"></path><path d="M506 411L582 338L498 302Z" fill="#ffffff" stroke="#ffffff"></path><path d="M498 302L617 225L477 168Z" fill="#f1f1f1" stroke="#f1f1f1"></path><path d="M616 125L491 111L477 168Z" fill="#e4e4e4" stroke="#e4e4e4"></path><path d="M477 168L491 111L403 84Z" fill="#f1f1f1" stroke="#f1f1f1"></path><path d="M135 83L83 238L216 231Z" fill="#eaeaea" stroke="#eaeaea"></path><path d="M122 297L0 310L137 363Z" fill="#c2c2c2" stroke="#c2c2c2"></path><path d="M286 73L227 68L268 223Z" fill="#c8c8c8" stroke="#c8c8c8"></path><path d="M137 363L134 491L198 362Z" fill="#c8c8c8" stroke="#c8c8c8"></path><path d="M227 600L301 600L295 509Z" fill="#cfcfcf" stroke="#cfcfcf"></path><path d="M0 402L134 491L137 363Z" fill="#c2c2c2" stroke="#c2c2c2"></path><path d="M506 411L606 370L582 338Z" fill="#f8f8f8" stroke="#f8f8f8"></path><path d="M582 338L617 225L498 302Z" fill="#c8c8c8" stroke="#c8c8c8"></path><path d="M618 521L606 370L506 411Z" fill="#e4e4e4" stroke="#e4e4e4"></path><path d="M417 600L515 523L397 514Z" fill="#f8f8f8" stroke="#f8f8f8"></path><path d="M397 514L515 523L506 411Z" fill="#bbbbbb" stroke="#bbbbbb"></path><path d="M737 337L617 225L582 338Z" fill="#cfcfcf" stroke="#cfcfcf"></path><path d="M227 600L295 509L220 492Z" fill="#d6d6d6" stroke="#d6d6d6"></path><path d="M295 509L301 600L397 514Z" fill="#c8c8c8" stroke="#c8c8c8"></path><path d="M301 600L417 600L397 514Z" fill="#dddddd" stroke="#dddddd"></path><path d="M227 68L135 83L216 231Z" fill="#f8f8f8" stroke="#f8f8f8"></path><path d="M134 491L227 600L220 492Z" fill="#eaeaea" stroke="#eaeaea"></path><path d="M419 0L301 0L403 84Z" fill="#ffffff" stroke="#ffffff"></path><path d="M403 84L301 0L286 73Z" fill="#e4e4e4" stroke="#e4e4e4"></path><path d="M286 73L301 0L227 68Z" fill="#c2c2c2" stroke="#c2c2c2"></path><path d="M227 68L215 0L135 83Z" fill="#c2c2c2" stroke="#c2c2c2"></path><path d="M491 111L419 0L403 84Z" fill="#f1f1f1" stroke="#f1f1f1"></path><path d="M529 0L419 0L491 111Z" fill="#f1f1f1" stroke="#f1f1f1"></path><path d="M301 0L215 0L227 68Z" fill="#e4e4e4" stroke="#e4e4e4"></path><path d="M617 225L616 125L477 168Z" fill="#c8c8c8" stroke="#c8c8c8"></path><path d="M0 201L0 310L83 238Z" fill="#f8f8f8" stroke="#f8f8f8"></path><path d="M83 238L0 310L122 297Z" fill="#c2c2c2" stroke="#c2c2c2"></path><path d="M618 521L665 399L606 370Z" fill="#bbbbbb" stroke="#bbbbbb"></path><path d="M606 370L737 337L582 338Z" fill="#eaeaea" stroke="#eaeaea"></path><path d="M617 225L675 174L616 125Z" fill="#e4e4e4" stroke="#e4e4e4"></path><path d="M417 600L528 600L515 523Z" fill="#eaeaea" stroke="#eaeaea"></path><path d="M515 523L618 521L506 411Z" fill="#ffffff" stroke="#ffffff"></path><path d="M528 600L618 521L515 523Z" fill="#f1f1f1" stroke="#f1f1f1"></path><path d="M0 310L0 402L137 363Z" fill="#c2c2c2" stroke="#c2c2c2"></path><path d="M134 491L92 600L227 600Z" fill="#ffffff" stroke="#ffffff"></path><path d="M0 124L83 238L135 83Z" fill="#bbbbbb" stroke="#bbbbbb"></path><path d="M0 124L0 201L83 238Z" fill="#d6d6d6" stroke="#d6d6d6"></path><path d="M737 337L675 174L617 225Z" fill="#dddddd" stroke="#dddddd"></path><path d="M589 0L529 0L616 125Z" fill="#d6d6d6" stroke="#d6d6d6"></path><path d="M616 125L529 0L491 111Z" fill="#bbbbbb" stroke="#bbbbbb"></path><path d="M215 0L119 0L135 83Z" fill="#cfcfcf" stroke="#cfcfcf"></path><path d="M0 504L92 600L134 491Z" fill="#ffffff" stroke="#ffffff"></path><path d="M0 0L0 124L135 83Z" fill="#dddddd" stroke="#dddddd"></path><path d="M0 402L0 504L134 491Z" fill="#c8c8c8" stroke="#c8c8c8"></path><path d="M664 65L589 0L616 125Z" fill="#bbbbbb" stroke="#bbbbbb"></path><path d="M736 477L737 337L665 399Z" fill="#dddddd" stroke="#dddddd"></path><path d="M665 399L737 337L606 370Z" fill="#eaeaea" stroke="#eaeaea"></path><path d="M528 600L618 600L618 521Z" fill="#e4e4e4" stroke="#e4e4e4"></path><path d="M618 521L736 477L665 399Z" fill="#dddddd" stroke="#dddddd"></path><path d="M776 114L664 65L675 174Z" fill="#ffffff" stroke="#ffffff"></path><path d="M675 174L664 65L616 125Z" fill="#cfcfcf" stroke="#cfcfcf"></path><path d="M695 600L736 477L618 521Z" fill="#c8c8c8" stroke="#c8c8c8"></path><path d="M0 504L0 600L92 600Z" fill="#f8f8f8" stroke="#f8f8f8"></path><path d="M736 477L793 362L737 337Z" fill="#cfcfcf" stroke="#cfcfcf"></path><path d="M838 196L776 114L675 174Z" fill="#eaeaea" stroke="#eaeaea"></path><path d="M119 0L0 0L135 83Z" fill="#ffffff" stroke="#ffffff"></path><path d="M618 600L695 600L618 521Z" fill="#f1f1f1" stroke="#f1f1f1"></path><path d="M736 477L826 527L793 362Z" fill="#d6d6d6" stroke="#d6d6d6"></path><path d="M828 267L675 174L737 337Z" fill="#d6d6d6" stroke="#d6d6d6"></path><path d="M664 65L739 0L589 0Z" fill="#c8c8c8" stroke="#c8c8c8"></path><path d="M793 362L828 267L737 337Z" fill="#e4e4e4" stroke="#e4e4e4"></path><path d="M828 0L739 0L776 114Z" fill="#ffffff" stroke="#ffffff"></path><path d="M776 114L739 0L664 65Z" fill="#dddddd" stroke="#dddddd"></path><path d="M828 267L838 196L675 174Z" fill="#d6d6d6" stroke="#d6d6d6"></path><path d="M695 600L783 600L736 477Z" fill="#c2c2c2" stroke="#c2c2c2"></path><path d="M793 362L900 298L828 267Z" fill="#f8f8f8" stroke="#f8f8f8"></path><path d="M828 267L900 298L838 196Z" fill="#ffffff" stroke="#ffffff"></path><path d="M783 600L826 527L736 477Z" fill="#d6d6d6" stroke="#d6d6d6"></path><path d="M900 416L900 298L793 362Z" fill="#f1f1f1" stroke="#f1f1f1"></path><path d="M838 196L900 175L776 114Z" fill="#f1f1f1" stroke="#f1f1f1"></path><path d="M826 527L900 416L793 362Z" fill="#eaeaea" stroke="#eaeaea"></path><path d="M900 530L900 416L826 527Z" fill="#d6d6d6" stroke="#d6d6d6"></path><path d="M900 298L900 175L838 196Z" fill="#d6d6d6" stroke="#d6d6d6"></path><path d="M900 63L828 0L776 114Z" fill="#ffffff" stroke="#ffffff"></path><path d="M900 600L900 530L826 527Z" fill="#c8c8c8" stroke="#c8c8c8"></path><path d="M900 175L900 63L776 114Z" fill="#e4e4e4" stroke="#e4e4e4"></path><path d="M783 600L900 600L826 527Z" fill="#f8f8f8" stroke="#f8f8f8"></path><path d="M900 63L900 0L828 0Z" fill="#eaeaea" stroke="#eaeaea"></path></g></svg>