<svg id="visual" viewBox="0 0 900 600" width="900" height="600" xmlns="http://www.w3.org/2000/svg" xmlns:xlink="http://www.w3.org/1999/xlink" version="1.1"><path d="M0 193L13.7 182C27.3 171 54.7 149 82 136C109.3 123 136.7 119 163.8 115C191 111 218 107 245.2 125C272.3 143 299.7 183 327 184C354.3 185 381.7 147 409 133C436.3 119 463.7 129 491 153C518.3 177 545.7 215 573 211C600.3 207 627.7 161 654.8 139C682 117 709 119 736.2 128C763.3 137 790.7 153 818 165C845.3 177 872.7 185 886.3 189L900 193L900 0L886.3 0C872.7 0 845.3 0 818 0C790.7 0 763.3 0 736.2 0C709 0 682 0 654.8 0C627.7 0 600.3 0 573 0C545.7 0 518.3 0 491 0C463.7 0 436.3 0 409 0C381.7 0 354.3 0 327 0C299.7 0 272.3 0 245.2 0C218 0 191 0 163.8 0C136.7 0 109.3 0 82 0C54.7 0 27.3 0 13.7 0L0 0Z" fill="#878206"></path><path d="M0 265L13.7 253C27.3 241 54.7 217 82 210C109.3 203 136.7 213 163.8 216C191 219 218 215 245.2 229C272.3 243 299.7 275 327 271C354.3 267 381.7 227 409 218C436.3 209 463.7 231 491 261C518.3 291 545.7 329 573 329C600.3 329 627.7 291 654.8 268C682 245 709 237 736.2 240C763.3 243 790.7 257 818 262C845.3 267 872.7 263 886.3 261L900 259L900 191L886.3 187C872.7 183 845.3 175 818 163C790.7 151 763.3 135 736.2 126C709 117 682 115 654.8 137C627.7 159 600.3 205 573 209C545.7 213 518.3 175 491 151C463.7 127 436.3 117 409 131C381.7 145 354.3 183 327 182C299.7 181 272.3 141 245.2 123C218 105 191 109 163.8 113C136.7 117 109.3 121 82 134C54.7 147 27.3 169 13.7 180L0 191Z" fill="#62650f"></path><path d="M0 445L13.7 441C27.3 437 54.7 429 82 428C109.3 427 136.7 433 163.8 435C191 437 218 435 245.2 428C272.3 421 299.7 409 327 415C354.3 421 381.7 445 409 457C436.3 469 463.7 469 491 470C518.3 471 545.7 473 573 468C600.3 463 627.7 451 654.8 451C682 451 709 463 736.2 473C763.3 483 790.7 491 818 482C845.3 473 872.7 447 886.3 434L900 421L900 257L886.3 259C872.7 261 845.3 265 818 260C790.7 255 763.3 241 736.2 238C709 235 682 243 654.8 266C627.7 289 600.3 327 573 327C545.7 327 518.3 289 491 259C463.7 229 436.3 207 409 216C381.7 225 354.3 265 327 269C299.7 273 272.3 241 245.2 227C218 213 191 217 163.8 214C136.7 211 109.3 201 82 208C54.7 215 27.3 239 13.7 251L0 263Z" fill="#424911"></path><path d="M0 493L13.7 494C27.3 495 54.7 497 82 505C109.3 513 136.7 527 163.8 526C191 525 218 509 245.2 499C272.3 489 299.7 485 327 496C354.3 507 381.7 533 409 538C436.3 543 463.7 527 491 525C518.3 523 545.7 535 573 531C600.3 527 627.7 507 654.8 504C682 501 709 515 736.2 527C763.3 539 790.7 549 818 543C845.3 537 872.7 515 886.3 504L900 493L900 419L886.3 432C872.7 445 845.3 471 818 480C790.7 489 763.3 481 736.2 471C709 461 682 449 654.8 449C627.7 449 600.3 461 573 466C545.7 471 518.3 469 491 468C463.7 467 436.3 467 409 455C381.7 443 354.3 419 327 413C299.7 407 272.3 419 245.2 426C218 433 191 435 163.8 433C136.7 431 109.3 425 82 426C54.7 427 27.3 435 13.7 439L0 443Z" fill="#272d0e"></path><path d="M0 601L13.7 601C27.3 601 54.7 601 82 601C109.3 601 136.7 601 163.8 601C191 601 218 601 245.2 601C272.3 601 299.7 601 327 601C354.3 601 381.7 601 409 601C436.3 601 463.7 601 491 601C518.3 601 545.7 601 573 601C600.3 601 627.7 601 654.8 601C682 601 709 601 736.2 601C763.3 601 790.7 601 818 601C845.3 601 872.7 601 886.3 601L900 601L900 491L886.3 502C872.7 513 845.3 535 818 541C790.7 547 763.3 537 736.2 525C709 513 682 499 654.8 502C627.7 505 600.3 525 573 529C545.7 533 518.3 521 491 523C463.7 525 436.3 541 409 536C381.7 531 354.3 505 327 494C299.7 483 272.3 487 245.2 497C218 507 191 523 163.8 524C136.7 525 109.3 511 82 503C54.7 495 27.3 493 13.7 492L0 491Z" fill="#101302"></path></svg>