<svg id="visual" viewBox="0 0 900 600" width="900" height="600" xmlns="http://www.w3.org/2000/svg" xmlns:xlink="http://www.w3.org/1999/xlink" version="1.1"><path d="M449 600L440 575C431 550 413 500 417.5 450C422 400 449 350 507.5 300C566 250 656 200 719 150C782 100 818 50 836 25L854 0L900 0L900 25C900 50 900 100 900 150C900 200 900 250 900 300C900 350 900 400 900 450C900 500 900 550 900 575L900 600Z" fill="#b3b3b3"></path><path d="M287 600L297.5 575C308 550 329 500 317 450C305 400 260 350 293 300C326 250 437 200 515 150C593 100 638 50 660.5 25L683 0L855 0L837 25C819 50 783 100 720 150C657 200 567 250 508.5 300C450 350 423 400 418.5 450C414 500 432 550 441 575L450 600Z" fill="#9e9e9e"></path><path d="M215 600L194 575C173 550 131 500 104 450C77 400 65 350 86 300C107 250 161 200 185 150C209 100 203 50 200 25L197 0L684 0L661.5 25C639 50 594 100 516 150C438 200 327 250 294 300C261 350 306 400 318 450C330 500 309 550 298.5 575L288 600Z" fill="#868686"></path><path d="M0 600L0 575C0 550 0 500 0 450C0 400 0 350 0 300C0 250 0 200 0 150C0 100 0 50 0 25L0 0L198 0L201 25C204 50 210 100 186 150C162 200 108 250 87 300C66 350 78 400 105 450C132 500 174 550 195 575L216 600Z" fill="#6c6c6c"></path></svg>